<svg viewBox="0 0 140 140" xmlns="http://www.w3.org/2000/svg"><path d="M87.024 128.114a31.01 31.01 0 0 0 38.612-4.2l4.34-4.34a10.332 10.332 0 0 0 0-14.602l-18.2-18.2a10.346 10.346 0 0 0-14.616 0 10.332 10.332 0 0 1-14.602 0L53.284 57.498a10.332 10.332 0 0 1 0-14.602 10.346 10.346 0 0 0 0-14.616L35 10.024a10.332 10.332 0 0 0-14.602 0l-4.34 4.34a30.996 30.996 0 0 0-4.2 38.612 279.664 279.664 0 0 0 75.166 75.138z" fill="none" stroke="currentColor" stroke-linecap="round" stroke-linejoin="round" stroke-width="14"/></svg>