<svg viewBox="0 0 10 10" xmlns="http://www.w3.org/2000/svg"><path fill="currentColor" d="m7.83 3.53c.04-.09.08-.17.11-.26.23-.63.33-1.27.29-1.81-.07-.91-.52-1.2-.78-1.3-.26-.1-.8-.16-1.43.49-.38.38-.71.94-.94 1.57-.02.06-.04.13-.07.19-.02-.07-.04-.13-.07-.19-.23-.63-.56-1.19-.94-1.57-.64-.65-1.18-.58-1.44-.48-.26.09-.71.39-.78 1.3-.04.54.06 1.18.29 1.81.03.09.07.17.11.26-1 .62-1.67 1.71-1.67 2.97 0 1.93 1.57 3.5 3.5 3.5h2c1.93 0 3.5-1.57 3.5-3.5 0-1.26-.67-2.36-1.67-2.97zm-1.83 5.47h-2c-1.38 0-2.5-1.12-2.5-2.5 0-.88.46-1.66 1.15-2.1.14.2.29.39.45.54.2.19.52.17.71-.03.09-.1.13-.22.13-.34 0-.14-.05-.27-.16-.37-.3-.28-.58-.74-.78-1.27-.37-1.01-.24-1.74-.11-1.82.15 0 .73.46 1.1 1.46.27.75.49 1.87.51 2v.02c.05.24.25.41.5.41s.45-.17.49-.41v-.02c.03-.13.24-1.25.51-2 .37-1 .92-1.48 1.09-1.47.14.09.27.82-.1 1.83-.19.53-.48.99-.78 1.27-.11.1-.16.23-.16.37 0 .12.04.24.13.34.1.11.23.16.37.16.12 0 .24-.04.34-.13.16-.15.31-.33.45-.54.69.45 1.15 1.22 1.15 2.1 0 1.38-1.12 2.5-2.5 2.5zm-1.9-2.5c0 .44-.27.8-.6.8s-.6-.36-.6-.8.27-.8.6-.8.6.36.6.8zm3 0c0 .44-.27.8-.6.8s-.6-.36-.6-.8.27-.8.6-.8.6.36.6.8zm-1.25.65c.2.2.2.51 0 .71-.1.1-.23.15-.35.15s-.26-.05-.35-.15l-.15-.15-.15.15c-.2.2-.51.2-.71 0s-.2-.51 0-.71l.5-.5c.2-.2.51-.2.71 0z"/></svg>