<svg viewBox="0 0 10 10" xmlns="http://www.w3.org/2000/svg"><path fill="currentColor" d="m8.52 9.93c-.17.04-.33.06-.5.06-.88 0-1.68-.59-1.91-1.48l-.19-.48c-1.2.1-2.34-.58-2.81-1.73-.43-1.04-.16-2.26.65-3.04.2-.19.52-.18.71.02s.18.52-.02.71c-.51.49-.68 1.28-.41 1.93.34.83 1.21 1.28 2.08 1.07.24-.06.49.07.58.3l.36.91c.16.58.69.9 1.21.76s.83-.67.7-1.19l-.88-4.77h-.58c-.19 0-.36-.11-.45-.28-.08-.17-.07-.37.05-.52l.9-1.2h-2c-2.77 0-5.01 2.24-5.01 5v3c0 .28-.22.5-.5.5s-.5-.22-.5-.5v-3c0-3.31 2.69-6 6-6h3c.19 0 .36.11.45.28.08.17.07.37-.05.52l-.9 1.2c.24 0 .45.17.49.41l.95 5.15c.27 1.02-.37 2.1-1.42 2.38zm-1.42-5.43c0-.44-.27-.8-.6-.8s-.6.36-.6.8.27.8.6.8.6-.36.6-.8z"/></svg>