<svg viewBox="0 0 24 24" xmlns="http://www.w3.org/2000/svg"><path d="M22.17,16.66H14.83a1.83,1.83,0,0,1,0-3.66h7.34a1.83,1.83,0,0,1,0,3.66Z" fill="currentColor"/><path d="M14.83,11A1.83,1.83,0,0,1,13,9.17V1.83a1.83,1.83,0,1,1,3.65,0V9.17A1.83,1.83,0,0,1,14.83,11Z" fill="currentColor"/><path d="M9.17,11H1.83a1.83,1.83,0,0,1,0-3.66H9.17a1.83,1.83,0,0,1,0,3.66Z" fill="currentColor"/><path d="M9.17,24a1.83,1.83,0,0,1-1.83-1.83V14.83a1.83,1.83,0,1,1,3.65,0v7.34A1.83,1.83,0,0,1,9.17,24Z" fill="currentColor"/><path d="M2.22,17.48A2.22,2.22,0,0,1,0,15.27,2.27,2.27,0,0,1,2.27,13H3.75a.74.74,0,0,1,.73.74v1.48A2.26,2.26,0,0,1,2.22,17.48Z" fill="currentColor"/><path d="M10.27,4.48H8.78A2.26,2.26,0,0,1,6.52,2.22,2.21,2.21,0,0,1,8.74,0,2.27,2.27,0,0,1,11,2.27V3.75A.73.73,0,0,1,10.27,4.48Z" fill="currentColor"/><path d="M15.26,24A2.27,2.27,0,0,1,13,21.73V20.25a.73.73,0,0,1,.73-.73h1.49a2.26,2.26,0,0,1,2.26,2.26A2.21,2.21,0,0,1,15.26,24Z" fill="currentColor"/><path d="M21.73,11H20.25a.74.74,0,0,1-.73-.74V8.78a2.26,2.26,0,0,1,2.26-2.26A2.22,2.22,0,0,1,24,8.73,2.27,2.27,0,0,1,21.73,11Z" fill="currentColor"/></svg>
