<svg viewBox="0 0 10 10" xmlns="http://www.w3.org/2000/svg"><path fill="currentColor" d="m8.95 5.28c-.06-.12-.16-.21-.29-.25l-1.38-.46 1.42-.61c.06-.02.11-.06.16-.11l1-1c.2-.2.2-.51 0-.71s-.51-.2-.71 0l-.93.93-1.03.44.66-.66c.09-.09.15-.22.15-.35v-2c0-.28-.22-.5-.5-.5s-.5.22-.5.5v1.79l-1 1v-.29c0-.28-.22-.5-.5-.5s-.5.22-.5.5c0-.28-.22-.5-.5-.5s-.5.22-.5.5v.29l-1-1v-1.79c0-.28-.22-.5-.5-.5s-.5.22-.5.5v2c0 .13.05.26.15.35l.66.66-1.03-.44-.93-.93c-.2-.2-.51-.2-.71 0s-.19.52.01.71l1 1s.1.08.16.11l1.42.61-1.38.46c-.13.04-.23.13-.29.25l-1.01 2c-.12.25-.02.55.22.67.25.12.55.02.67-.22l.91-1.81 1.22-.4s-.02.08-.03.13l-.97 1.61c-.05.08-.07.17-.07.26v2c0 .28.22.5.5.5s.5-.22.5-.5v-1.86l.08-.13c.23.85 1 1.49 1.92 1.49s1.7-.63 1.92-1.49l.08.13v1.86c0 .28.22.5.5.5s.5-.22.5-.5v-2c0-.09-.02-.18-.07-.26l-.97-1.61s-.02-.09-.03-.13l1.22.4.91 1.81c.09.18.26.28.45.28.08 0 .15-.02.22-.05.25-.12.35-.42.22-.67l-1-2zm-2.95.72v1c0 .55-.45 1-1 1s-1-.45-1-1v-1c0-.55.45-1 1-1s1 .45 1 1z"/></svg>