<svg viewBox="0 0 10 10" xmlns="http://www.w3.org/2000/svg"><path fill="currentColor" d="m9.5 0c-.28 0-.5.22-.5.5s-.22.5-.5.5h-1c-.22 0-.39.14-.47.33l-.18-.18c-.09-.09-.22-.15-.35-.15h-3c-.13 0-.26.05-.35.15l-.18.18c-.07-.19-.25-.33-.47-.33h-1c-.28 0-.5-.22-.5-.5s-.22-.5-.5-.5-.5.22-.5.5c0 .83.67 1.5 1.5 1.5h.79l-.15.15c-.09.09-.15.22-.15.35v1.1l1.01 5s.02.09.04.13l.5 1c.08.17.26.28.45.28h2c.19 0 .36-.11.45-.28l.5-1s.03-.08.04-.13l1-5s0-.06 0-.1v-1c0-.13-.05-.26-.15-.35l-.15-.15h.79c.83 0 1.5-.67 1.5-1.5 0-.28-.22-.5-.5-.5zm-3.48 8.34-.04.08c-.04-.23-.24-.42-.48-.42h-1c-.25 0-.44.18-.48.42l-.04-.08-.66-3.27c.06.02.12.04.18.04.33 0 .6-.27.6-.6s-.27-.6-.6-.6c-.15 0-.28.06-.39.15l-.11-.55v-.79l.71-.71h2.59l.71.71v.74l-.12.6c-.1-.09-.23-.15-.38-.15-.33 0-.6.27-.6.6s.27.6.6.6c.06 0 .12-.02.18-.04l-.65 3.27z"/><ellipse fill="currentColor" cx="3.5" cy="4.5" rx=".6" ry=".8"/><ellipse fill="currentColor" cx="6.5" cy="4.5" rx=".6" ry=".8"/></svg>