<svg viewBox="0 0 10 10" xmlns="http://www.w3.org/2000/svg"><path fill="currentColor" d="m9.5 2h-.54c-.23-1.14-1.24-2-2.45-2-1.38 0-2.5 1.12-2.5 2.5v1.5h-3.51c-.28 0-.5.22-.5.5 0 .17.02.34.05.5.25 2.17 2.02 3.86 4.22 3.97l.88.88c.09.09.22.15.35.15h1c.28 0 .5-.22.5-.5s-.22-.5-.5-.5h-.79l-.14-.14c1.97-.48 3.44-2.25 3.44-4.36v-1.5h.49c.28 0 .5-.22.5-.5s-.22-.5-.5-.5zm-8.41 3h2.83c-.21.58-.76 1-1.42 1s-1.21-.42-1.42-1zm6.92-2v1.5c0 1.93-1.57 3.5-3.5 3.5-.97 0-1.84-.41-2.48-1.05.15.03.31.05.48.05 1.38 0 2.5-1.12 2.5-2.5v-2c0-.83.67-1.5 1.5-1.5s1.5.67 1.5 1.5z"/><path fill="currentColor" d="m6.51 1.7c-.33 0-.6.36-.6.8s.27.8.6.8.6-.36.6-.8-.27-.8-.6-.8z"/></svg>