<svg viewBox="0 0 10 10" xmlns="http://www.w3.org/2000/svg"><path fill="currentColor" d="m6 6.5c0 .28-.22.5-.5.5v.5c0 .28-.22.5-.5.5s-.5-.22-.5-.5v-.5c-.28 0-.5-.22-.5-.5s.22-.5.5-.5h1c.28 0 .5.22.5.5zm-2.5-2.8c-.33 0-.6.36-.6.8s.27.8.6.8.6-.36.6-.8-.27-.8-.6-.8zm3 0c-.33 0-.6.36-.6.8s.27.8.6.8.6-.36.6-.8-.27-.8-.6-.8zm3.49 2.3c.02.45-.18.89-.53 1.19l-2.86 2.45c-.27.23-.62.36-.98.36h-1.26c-.36 0-.7-.13-.97-.36l-2.85-2.45c-.35-.3-.54-.74-.53-1.19.1-2.27.84-4.51 1.88-5.71.15-.17.37-.29.6-.29.21 0 .46.11.61.28.43.48.81 1.06 1.11 1.75.52-.03 1.06-.03 1.58 0 .3-.68.67-1.27 1.11-1.75.16-.17.38-.28.61-.28s.45.12.6.29c1.04 1.2 1.78 3.44 1.88 5.71zm-1 .04c-.08-1.92-.68-3.86-1.5-4.93-.36.44-.67.99-.91 1.62-.08.21-.28.34-.51.32-.7-.06-1.44-.06-2.14 0-.23.02-.43-.11-.51-.32-.24-.63-.56-1.18-.91-1.62-.82 1.07-1.41 3.01-1.5 4.93 0 .14.06.29.18.39l2.86 2.45c.09.08.2.12.32.12h1.26c.12 0 .23-.04.33-.12l2.85-2.45c.12-.1.19-.25.18-.39z"/></svg>