<svg viewBox="0 0 10 10" xmlns="http://www.w3.org/2000/svg"><ellipse fill="currentColor" cx="3" cy="5" rx=".6" ry=".8"/><path fill="currentColor" d="m9.65 3.02c-.21-.06-.44.02-.56.2l-.46.68c-.52-1.14-1.35-2-2.35-2.48l.57-.57c.14-.14.19-.36.11-.54-.08-.19-.26-.31-.46-.31h-1c-.13 0-.26.05-.35.15l-.87.88c-1.97.1-3.67 1.61-4.26 3.84-.02.08-.02.17 0 .26.62 2.32 2.42 3.87 4.48 3.87.25 0 .49-.03.72-.07l.42.42c.1.1.23.15.35.15s.26-.05.35-.15c.2-.2.2-.51 0-.71l-.07-.07c1-.48 1.83-1.34 2.35-2.48l.46.68c.09.14.25.22.42.22.05 0 .1 0 .15-.02.21-.06.35-.26.35-.48v-2.99c0-.22-.14-.42-.35-.48zm-5.14 4.98c-1.57 0-2.95-1.2-3.48-3 .53-1.8 1.91-3 3.48-3s2.95 1.2 3.48 3c-.53 1.8-1.91 3-3.48 3z"/></svg>