<svg viewBox="0 0 10 10" xmlns="http://www.w3.org/2000/svg"><path fill="currentColor" d="m3.5 4.7c-.33 0-.6.36-.6.8s.27.8.6.8.6-.36.6-.8-.27-.8-.6-.8z"/><path fill="currentColor" d="m6.5 4.7c-.33 0-.6.36-.6.8s.27.8.6.8.6-.36.6-.8-.27-.8-.6-.8z"/><path fill="currentColor" d="m9.85 4.15-1-1 .09-.69c.02-.1.03-.21.04-.31v-.07s0 0 0-.01c0-.02 0-.04 0-.05 0-1.1-.9-2-2-2-.35 0-.7.1-1 .27-.6-.38-1.36-.38-1.98-.02-.3-.18-.65-.27-1-.27-1.1 0-2 .9-2 2v.05.01.07c.02.11.03.21.05.31l.09.69-.99 1.02c-.2.2-.2.51 0 .71.1.1.23.15.35.15s.26-.05.35-.15l.46-.46.33 2.5c.19 1.46 1.23 2.75 2.68 3.04 1.95.39 3.75-.96 4-2.84l.36-2.7.46.46c.1.1.23.15.35.15s.26-.05.35-.15c.2-.2.2-.51 0-.71zm-2.52 2.81c-.17 1.31-1.42 2.25-2.77 2-1.03-.19-1.78-1.11-1.92-2.15l-.39-2.96c.23.09.48.15.75.15.35 0 .7-.1 1-.27.62.36 1.38.36 2 0 .3.18.65.27 1 .27.27 0 .52-.05.75-.15l-.41 3.1zm-.33-3.96c-.24 0-.48-.09-.67-.26-.09-.09-.21-.13-.33-.13s-.24.04-.33.13c-.37.34-.96.34-1.33 0-.19-.17-.48-.17-.67 0s-.42.26-.67.26c-.55 0-1-.45-1-1s.45-1 1-1c.24 0 .48.09.67.26s.48.17.67 0c.37-.34.96-.34 1.33 0 .19.17.48.17.67 0s.42-.26.67-.26c.55 0 1 .45 1 1s-.45 1-1 1z"/></svg>