<svg viewBox="0 0 10 10" xmlns="http://www.w3.org/2000/svg"><path fill="currentColor" d="m4.1 5c0 .44-.27.8-.6.8s-.6-.36-.6-.8.27-.8.6-.8.6.36.6.8zm2.4-.8c-.33 0-.6.36-.6.8s.27.8.6.8.6-.36.6-.8-.27-.8-.6-.8zm3.5 2.3c0 .28-.22.5-.5.5h-.79l.65.65c.2.2.2.51 0 .71-.1.1-.23.15-.35.15s-.26-.05-.35-.15l-.69-.69c-.73.81-1.78 1.33-2.96 1.33s-2.23-.52-2.96-1.33l-.69.69c-.1.1-.23.15-.35.15s-.26-.05-.35-.15c-.2-.2-.2-.51 0-.71l.65-.65h-.81c-.28 0-.5-.22-.5-.5s.22-.5.5-.5h.64c-.08-.32-.14-.65-.14-1v-4.5c0-.2.12-.38.31-.46s.4-.04.54.11l1.31 1.31c1.14-.59 2.54-.59 3.68 0l1.31-1.31c.14-.14.36-.19.54-.11s.31.26.31.46v4.5c0 .35-.06.68-.14 1h.64c.28 0 .5.22.5.5zm-2.75.46-.11-.11c-.14-.14-.19-.36-.11-.54.08-.19.26-.31.46-.31h.32c.11-.31.18-.65.18-1v-3.29l-.73.73c-.17.17-.43.19-.63.06-.98-.65-2.31-.65-3.29 0-.2.13-.46.1-.63-.06l-.73-.73v3.29c0 .35.07.69.18 1h.32c.2 0 .38.12.46.31s.03.4-.11.54l-.11.11c.55.63 1.35 1.04 2.25 1.04s1.7-.41 2.25-1.04zm-1.9-1.31c-.2-.2-.51-.2-.71 0l-.5.5c-.2.2-.2.51 0 .71s.51.2.71 0l.15-.15.15.15c.1.1.23.15.35.15s.26-.05.35-.15c.2-.2.2-.51 0-.71z"/></svg>