<svg viewBox="0 0 10 10" xmlns="http://www.w3.org/2000/svg"><path fill="currentColor" d="m8 4.69v-.69c1.1 0 2-.9 2-2s-.9-2-2-2c-.74 0-1.37.41-1.72 1h-2.56c-.35-.59-.98-1-1.72-1-1.1 0-2 .9-2 2s.9 2 2 2v.69c0 .21.04.41.12.6l.75 1.72h-1.37c-.28 0-.5.23-.5.51s.22.5.5.5h1.18l-.94.56c-.24.14-.31.45-.17.69.09.16.26.24.43.24.09 0 .18-.02.26-.07l1.32-.79.46 1.06c.08.18.26.3.46.3h1c.2 0 .38-.12.46-.3l.46-1.06 1.33.79c.08.05.17.07.25.07.17 0 .34-.09.43-.24.14-.24.06-.54-.17-.69l-.94-.56h1.18c.28 0 .5-.22.5-.5s-.22-.5-.5-.5h-1.37l.75-1.73c.08-.19.12-.39.12-.6zm-2-2.69c0 .28.22.5.5.5s.5-.22.5-.5c0-.55.45-1 1-1s1 .45 1 1-.45 1-1 1h-.5c-.28 0-.5.22-.5.5v1.19c0 .07-.01.14-.04.2l-1.79 4.11h-.34l-1.79-4.11c-.03-.06-.04-.13-.04-.2v-1.19c0-.28-.22-.5-.5-.5h-.5c-.55 0-1-.45-1-1s.45-1 1-1 1 .45 1 1c0 .28.22.5.5.5s.5-.22.5-.5z"/><ellipse fill="currentColor" cx="4" cy="4.5" rx=".6" ry=".8"/><ellipse fill="currentColor" cx="6" cy="4.5" rx=".6" ry=".8"/></svg>