<svg viewBox="0 0 10 10" xmlns="http://www.w3.org/2000/svg"><path fill="currentColor" d="m9.88 2.54c-.14-.83-.72-1.55-1.51-1.87-2.15-.89-4.59-.89-6.74 0-.79.32-1.37 1.04-1.51 1.87-.08.49-.12.98-.12 1.46s.04.98.12 1.46c.14.83.72 1.55 1.51 1.87.45.18.91.32 1.37.43v1.74c0 .2.12.38.31.46s.4.03.54-.11l1.15-1.15 1.15 1.15c.1.1.22.15.35.15.06 0 .13-.01.19-.04.19-.08.31-.26.31-.46v-1.74c.46-.11.92-.24 1.37-.43.79-.32 1.37-1.04 1.51-1.87.08-.49.12-.98.12-1.46s-.04-.98-.12-1.46zm-3.88 5.76-.65-.65c-.1-.1-.23-.15-.35-.15s-.26.05-.35.15l-.65.65v-2.29h2zm2.89-2.99c-.08.49-.43.92-.9 1.11-.32.13-.66.23-.99.32v-.73h.5c.28 0 .5-.22.5-.5s-.22-.5-.5-.5h-5c-.28 0-.5.22-.5.5s.22.5.5.5h.5v.73c-.34-.09-.67-.19-.99-.32-.47-.19-.82-.62-.9-1.11-.07-.43-.11-.87-.11-1.3s.04-.87.11-1.3c.08-.49.43-.92.9-1.11.96-.39 1.96-.59 2.99-.59s2.03.2 2.99.59c.47.19.82.62.9 1.11.07.43.11.87.11 1.3s-.04.87-.11 1.3z"/><ellipse fill="currentColor" cx="2.5" cy="3.5" rx=".6" ry=".8"/><ellipse fill="currentColor" cx="7.5" cy="3.5" rx=".6" ry=".8"/></svg>