<svg viewBox="0 0 140 140" xmlns="http://www.w3.org/2000/svg"><g fill="none" stroke="currentColor" stroke-linecap="round" stroke-linejoin="round" stroke-width="14"><path d="M8.064 31.99A4.732 4.732 0 0 0 7 34.902v70.882a4.83 4.83 0 0 0 3.108 4.522l58.156 22.4A4.956 4.956 0 0 0 70 133V55.804zm123.872 0L70 55.804V133a4.956 4.956 0 0 0 1.736-.322l58.156-22.4a4.83 4.83 0 0 0 3.108-4.494V34.902a4.732 4.732 0 0 0-1.064-2.912z"/><path d="M8.064 31.99 70 55.804l61.936-23.8a4.746 4.746 0 0 0-2.044-1.61L71.736 7.322a4.788 4.788 0 0 0-3.472 0L10.108 30.38a4.746 4.746 0 0 0-2.044 1.61z"/></g></svg>