<svg viewBox="0 0 140 140" xmlns="http://www.w3.org/2000/svg"><path d="M80.514 78.092h-21a13.902 13.902 0 0 0-13.37 10.08l-6.09 21.21a13.902 13.902 0 0 0 13.37 17.71h33.152a13.902 13.902 0 0 0 13.37-17.71L93.884 88.2a13.902 13.902 0 0 0-13.37-10.108z" fill="none" stroke="currentColor" stroke-linecap="round" stroke-linejoin="round" stroke-width="14"/><path fill="currentColor" d="M0 71.092a14 21 0 1 0 28 0 14 21 0 1 0-28 0zm35-42a14 21 0 1 0 28 0 14 21 0 1 0-28 0zm77 42a14 21 0 1 0 28 0 14 21 0 1 0-28 0zm-35-42a14 21 0 1 0 28 0 14 21 0 1 0-28 0z"/></svg>