<svg viewBox="0 0 24 24" xmlns="http://www.w3.org/2000/svg"><path d="M22.13,9.48c.52-1.06,2.21-5.1-.85-7.62A.54.54,0,0,0,21,1.75c-1.91,0-4.45,2.45-5.22,3.25A14.55,14.55,0,0,0,8.3,5C7.51,4.19,5,1.75,3.08,1.75a.51.51,0,0,0-.31.11C.12,4,.92,7.52,1.89,9.44A9.47,9.47,0,0,0,.57,15.25c.26,3.31,3,7,6.49,7h9.88c3.51,0,6.23-3.69,6.48-7A9.32,9.32,0,0,0,22.13,9.48ZM16,19.75H8a3.5,3.5,0,0,1-3.5-3.5c0-5.91,4.12-3.53,7.5-3.53s7.5-2.44,7.5,3.53A3.5,3.5,0,0,1,16,19.75Z" fill="currentColor"/><ellipse cx="15.52" cy="16.25" rx="1" ry="1.5" fill="currentColor"/><ellipse cx="8.52" cy="16.25" rx="1" ry="1.5" fill="currentColor"/></svg>
