<svg viewBox="0 0 10 10" xmlns="http://www.w3.org/2000/svg"><path fill="currentColor" d="m10 2.5c0-1.38-1.12-2.5-2.5-2.5-1.21 0-2.22.86-2.45 2h-.1c-.23-1.14-1.24-2-2.45-2-1.38 0-2.5 1.12-2.5 2.5 0 .55.17 1.06.5 1.49-.33.47-.5.99-.5 1.51 0 1.96 2.2 3.5 5 3.5s5-1.54 5-3.5c0-.52-.17-1.04-.5-1.51.32-.43.5-.94.5-1.49zm-1.52 1.8c.35.39.52.79.52 1.2 0 1.35-1.83 2.5-4 2.5s-4-1.15-4-2.5c0-.41.18-.81.52-1.2l.33-.37-.36-.33c-.31-.29-.49-.68-.49-1.1 0-.83.67-1.5 1.5-1.5s1.5.67 1.5 1.5v.5h2v-.5c0-.83.67-1.5 1.5-1.5s1.5.67 1.5 1.5c0 .42-.17.81-.49 1.1l-.36.33zm-5.98-1c-.33 0-.6-.36-.6-.8s.27-.8.6-.8.6.36.6.8-.27.8-.6.8zm5.6-.8c0 .44-.27.8-.6.8s-.6-.36-.6-.8.27-.8.6-.8.6.36.6.8zm-.53 3.22c.16.23.1.54-.13.7-.54.37-1.45.59-2.44.59s-1.9-.22-2.44-.59c-.23-.16-.29-.47-.13-.7s.47-.29.7-.13c.28.19.93.41 1.87.41s1.59-.22 1.87-.41c.23-.16.54-.1.7.13z"/></svg>