<svg viewBox="0 0 10 10" xmlns="http://www.w3.org/2000/svg"><path fill="currentColor" d="m8.58 1.52 1.15-.57c.25-.12.35-.42.22-.67-.12-.25-.42-.35-.67-.22l-1.54.77c-.79-.52-1.73-.82-2.74-.82s-1.95.31-2.74.82l-1.54-.78c-.24-.12-.54-.02-.67.23s-.02.55.22.67l1.15.57c-.88.9-1.42 2.13-1.42 3.48 0 2.76 2.24 5 5 5s5-2.24 5-5c0-1.35-.55-2.58-1.42-3.48zm-4.08 7.48c-.83 0-1.5-.67-1.5-1.5s.67-1.5 1.5-1.5h1c.83 0 1.5.67 1.5 1.5s-.67 1.5-1.5 1.5zm3.49-1.37s.01-.09.01-.13c0-1.38-1.12-2.5-2.5-2.5h-1c-1.38 0-2.5 1.12-2.5 2.5 0 .05.01.09.01.13-.62-.71-1.01-1.62-1.01-2.63 0-2.21 1.79-4 4-4s4 1.79 4 4c0 1.01-.39 1.93-1.01 2.63zm-3.99.37c-.28 0-.5-.22-.5-.5s.22-.5.5-.5.5.22.5.5-.22.5-.5.5zm1.5-.5c0-.28.22-.5.5-.5s.5.22.5.5-.22.5-.5.5-.5-.22-.5-.5zm-2.4-3.5c0 .44-.27.8-.6.8s-.6-.36-.6-.8.27-.8.6-.8.6.36.6.8zm5 0c0 .44-.27.8-.6.8s-.6-.36-.6-.8.27-.8.6-.8.6.36.6.8z"/></svg>