<svg viewBox="0 0 36 36" xmlns="http://www.w3.org/2000/svg">
<path d="M9.03835 14.3234L27.0383 14.4C27.5745 14.4 28.1107 14.2468 28.5703 13.9404C29.0298 13.634 29.3362 13.2511 29.566 12.7149C29.7958 12.2553 29.7958 11.6426 29.7192 11.183C29.6426 10.6468 29.3362 10.1872 28.9532 9.80426L19.9149 0.765957C19.6852 0.53617 19.3788 0.306383 19.0724 0.153191C18.6894 0.0765957 18.383 0 18.0001 0C17.6171 0 17.3107 0.0765958 17.0043 0.229787C16.6213 0.306383 16.3149 0.53617 16.0852 0.765957L7.12346 9.80426C6.66388 10.3404 6.3575 11.0298 6.43409 11.7191C6.43409 12.4085 6.74048 13.0979 7.20005 13.5574C7.65963 14.017 8.34899 14.3234 9.03835 14.3234Z" fill="currentColor"/>
<path d="M27.0382 21.6766C26.9616 21.6766 26.9616 21.6766 27.0382 21.6766L9.03818 21.6C8.50201 21.6 7.96584 21.7532 7.50627 22.0595C7.0467 22.3659 6.74031 22.7489 6.51052 23.2851C6.28074 23.7447 6.28074 24.3574 6.35733 24.817C6.43393 25.3532 6.74031 25.8127 7.12329 26.1957L16.1616 35.234C16.3914 35.4638 16.6978 35.6936 17.0041 35.8468C17.3105 36 17.6935 36.0766 17.9999 36.0766C18.3829 36.0766 18.6892 36 18.9956 35.8468C19.302 35.6936 19.6084 35.5404 19.8382 35.234L28.8765 26.1957C29.3361 25.6595 29.6424 24.9702 29.5658 24.2808C29.5658 23.5915 29.2595 22.9021 28.7999 22.4425C28.4169 21.983 27.7275 21.6766 27.0382 21.6766Z" fill="currentColor"/>
</svg>