<svg viewBox="0 0 36 36" xmlns="http://www.w3.org/2000/svg"><path fill="currentColor" d="m5.4 3.6c-.47739 0-.93523.18964-1.27279.52721-.33757.33756-.52721.7954-.52721 1.27279v17.1646c1.08523-.6265 2.32519-.9646 3.6-.9646h23.4c.4774 0 .9352-.1896 1.2728-.5272s.5272-.7954.5272-1.2728v-14.4c0-.47739-.1896-.93523-.5272-1.27279-.3376-.33757-.7954-.52721-1.2728-.52721zm-1.8 25.2c0 .9548.37928 1.8705 1.05442 2.5456.67513.6751 1.5908 1.0544 2.54558 1.0544h27c.9941 0 1.8.8059 1.8 1.8s-.8059 1.8-1.8 1.8h-27c-1.90956 0-3.74091-.7586-5.09117-2.1088-1.350261-1.3503-2.10883-3.1816-2.10883-5.0912v-23.4c0-1.43217.568927-2.80568 1.58162-3.81838 1.0127-1.012693 2.38621-1.58162 3.81838-1.58162h25.2c1.4322 0 2.8057.568927 3.8184 1.58162 1.0127 1.0127 1.5816 2.38621 1.5816 3.81838v14.4c0 1.4322-.5689 2.8057-1.5816 3.8184s-2.3862 1.5816-3.8184 1.5816h-23.4c-.95478 0-1.87045.3793-2.54558 1.0544-.67514.6751-1.05442 1.5908-1.05442 2.5456z"/><path fill="currentColor" d="m30.6 21.6c.9942 0 1.8001.8059 1.8001 1.8v10.8c0 .9941-.8059 1.8-1.8001 1.8-.9941 0-1.8-.8059-1.8-1.8v-10.8c0-.9941.8059-1.8 1.8-1.8z"/></svg>