<svg viewBox="0 0 36 36" xmlns="http://www.w3.org/2000/svg">
<path d="M27.0382 21.6767C26.9616 21.6767 26.9616 21.6767 27.0382 21.6767L9.03818 21.6001C8.50201 21.6001 7.96584 21.7533 7.50627 22.0597C7.0467 22.3661 6.74031 22.749 6.51052 23.2852C6.28074 23.7448 6.28074 24.3575 6.35733 24.8171C6.43393 25.3533 6.74031 25.8129 7.12329 26.1958L16.1616 35.2341C16.3914 35.4639 16.6978 35.6937 17.0041 35.8469C17.3105 36.0001 17.6935 36.0767 17.9999 36.0767C18.3829 36.0767 18.6892 36.0001 18.9956 35.8469C19.302 35.6937 19.6084 35.5405 19.8382 35.2341L28.8765 26.1958C29.3361 25.6597 29.6424 24.9703 29.5658 24.2809C29.5658 23.5916 29.2595 22.9022 28.7999 22.4426C28.4169 21.9831 27.7275 21.6767 27.0382 21.6767Z" fill="currentColor"/>
</svg>
