<svg viewBox="0 0 140 140" xmlns="http://www.w3.org/2000/svg"><g transform="matrix(14,0,0,14,0,0)"><path d="M2,4V3.416A2.959,2.959,0,0,1,5,.5H5A2.959,2.959,0,0,1,8,3.416V4" fill="none" stroke="currentColor" stroke-linecap="round" stroke-linejoin="round"></path><path d="M2.5,7.5h-1a1,1,0,0,1-1-1V5a1,1,0,0,1,1-1h1a.5.5,0,0,1,.5.5V7A.5.5,0,0,1,2.5,7.5Z" fill="none" stroke="currentColor" stroke-linecap="round" stroke-linejoin="round"></path><path d="M7.5,7.5h1a1,1,0,0,0,1-1V5a1,1,0,0,0-1-1h-1a.5.5,0,0,0-.5.5V7A.5.5,0,0,0,7.5,7.5Z" fill="none" stroke="currentColor" stroke-linecap="round" stroke-linejoin="round"></path><path d="M8,7.5v.462H8A1.52,1.52,0,0,1,6.5,9.5H5" fill="none" stroke="currentColor" stroke-linecap="round" stroke-linejoin="round"></path></g></svg>