<svg viewBox="0 0 140 140" xmlns="http://www.w3.org/2000/svg"><g transform="matrix(14,0,0,14,0,0)"><path d="M.5,2.923V1.192A.692.692,0,0,1,1.192.5H2.923" fill="none" stroke="currentColor" stroke-linecap="round" stroke-linejoin="round"></path><path d="M9.5,2.923V1.192A.692.692,0,0,0,8.808.5H7.077" fill="none" stroke="currentColor" stroke-linecap="round" stroke-linejoin="round"></path><path d="M.5,7.077V8.808a.692.692,0,0,0,.692.692H2.923" fill="none" stroke="currentColor" stroke-linecap="round" stroke-linejoin="round"></path><path d="M9.5,7.077V8.808a.692.692,0,0,1-.692.692H7.077" fill="none" stroke="currentColor" stroke-linecap="round" stroke-linejoin="round"></path><path d="M1 5.25L2.5 5.25 3.5 2.5 5 6.75 6.5 3.5 7.5 5.25 9 5.25" fill="none" stroke="currentColor" stroke-linecap="round" stroke-linejoin="round"></path></g></svg>