<svg viewBox="0 0 140 140" xmlns="http://www.w3.org/2000/svg"><g transform="matrix(14,0,0,14,0,0)"><path d="M5,9.5A3.522,3.522,0,0,0,8.5,5.978V4.022a3.5,3.5,0,0,0-.376-1.584" fill="none" stroke="currentColor" stroke-linecap="round" stroke-linejoin="round"></path><path d="M1.5,4.805V5.978A3.544,3.544,0,0,0,2.515,8.485" fill="none" stroke="currentColor" stroke-linecap="round" stroke-linejoin="round"></path><path d="M6.375.789A3.521,3.521,0,0,0,1.929,2.261" fill="none" stroke="currentColor" stroke-linecap="round" stroke-linejoin="round"></path><path d="M3.9,2.87a1.78,1.78,0,0,1,2.848,1.4V5.43" fill="none" stroke="currentColor" stroke-linecap="round" stroke-linejoin="round"></path><path d="M5.86,7.258a1.76,1.76,0,0,1-2.055-.212A1.729,1.729,0,0,1,3.25,5.734V5" fill="none" stroke="currentColor" stroke-linecap="round" stroke-linejoin="round"></path><path d="M5 4.5L5 5.5" fill="none" stroke="currentColor" stroke-linecap="round" stroke-linejoin="round"></path></g></svg>