<svg viewBox="0 0 140 140" xmlns="http://www.w3.org/2000/svg"><path fill="currentColor" d="M129.5 59.5A10.5 10.5 0 0 1 119 49V23.716A2.716 2.716 0 0 0 116.284 21H91a10.5 10.5 0 0 1 0-21h25.284A23.8 23.8 0 0 1 140 23.716V49a10.5 10.5 0 0 1-10.5 10.5zm-119 0A10.5 10.5 0 0 1 0 49V23.716A23.8 23.8 0 0 1 23.716 0H49a10.5 10.5 0 0 1 0 21H23.716A2.716 2.716 0 0 0 21 23.716V49a10.5 10.5 0 0 1-10.5 10.5zM116.284 140H91a10.5 10.5 0 0 1 0-21h25.284a2.716 2.716 0 0 0 2.716-2.716V91a10.5 10.5 0 0 1 21 0v25.284A23.8 23.8 0 0 1 116.284 140zM49 140H23.716A23.8 23.8 0 0 1 0 116.284V91a10.5 10.5 0 0 1 21 0v25.284A2.716 2.716 0 0 0 23.716 119H49a10.5 10.5 0 0 1 0 21z"/></svg>