<svg viewBox="0 0 36 36" xmlns="http://www.w3.org/2000/svg"><path fill-rule="evenodd" clip-rule="evenodd" d="M18 9C18.9941 9 19.8 9.80589 19.8 10.8V18C19.8 18.9941 18.9941 19.8 18 19.8C17.0058 19.8 16.2 18.9941 16.2 18V10.8C16.2 9.80589 17.0058 9 18 9Z" fill="currentColor"/><path d="M15.3214 25.2C15.3214 25.9104 15.6036 26.5917 16.106 27.0941C16.6083 27.5964 17.2896 27.8786 18 27.8786C18.7105 27.8786 19.3918 27.5964 19.8941 27.0941C20.3965 26.5917 20.6787 25.9104 20.6787 25.2C20.6787 24.4896 20.3965 23.8083 19.8941 23.3059C19.3918 22.8036 18.7105 22.5214 18 22.5214C17.2896 22.5214 16.6083 22.8036 16.106 23.3059C15.6036 23.8083 15.3214 24.4896 15.3214 25.2Z" fill="currentColor"/><path fill-rule="evenodd" clip-rule="evenodd" d="M15.3891 0.71328C16.1794 0.244619 17.0813 -0.00268555 18.0002 -0.00268555C18.919 -0.00268555 19.8209 0.244619 20.6113 0.71328C21.3993 1.18057 22.0474 1.85075 22.4881 2.65385L35.092 25.2668L35.0968 25.2753C35.7031 26.3771 36.0118 27.618 35.9924 28.8754C35.973 30.1329 35.6263 31.3636 34.9863 32.4462C34.3463 33.5288 33.4352 34.426 32.3428 35.0491C31.2505 35.6723 30.0146 36 28.757 35.9999C28.757 35.9999 28.757 35.9999 28.757 35.9999H7.23618C7.23611 35.9999 7.23626 35.9999 7.23618 35.9999C5.97993 35.9998 4.74519 35.6722 3.65409 35.0496C2.56299 34.427 1.65299 33.5308 1.01378 32.4493C0.374574 31.3678 0.0282382 30.1384 0.00891227 28.8823C-0.0104135 27.6262 0.297938 26.3868 0.90357 25.2862L0.90814 25.2779L13.5122 2.65398C13.9529 1.85082 14.601 1.1806 15.3891 0.71328ZM7.23641 32.3999H28.757C29.3889 32.4 30.0101 32.2353 30.559 31.9222C31.1079 31.609 31.5657 31.1582 31.8873 30.6142C32.2089 30.0703 32.3831 29.4518 32.3928 28.82C32.4026 28.1896 32.2482 27.5676 31.945 27.0149C31.9442 27.0136 31.9435 27.0123 31.9428 27.011L19.3403 4.40069L19.3332 4.38778C19.2024 4.14852 19.0096 3.94887 18.7751 3.80979C18.5405 3.67071 18.2729 3.59731 18.0002 3.59731C17.7275 3.59731 17.4599 3.67071 17.2253 3.80979C16.9908 3.94887 16.798 4.14852 16.6672 4.38778L16.6602 4.40037L4.0576 27.0217C4.05692 27.0229 4.05625 27.0242 4.05558 27.0254C3.75289 27.577 3.59881 28.1978 3.60849 28.827C3.61819 29.4575 3.79205 30.0747 4.11292 30.6175C4.4338 31.1604 4.89061 31.6103 5.43834 31.9229C5.986 32.2354 6.60586 32.3998 7.23641 32.3999C7.23648 32.3999 7.23633 32.3999 7.23641 32.3999Z" fill="currentColor"/></svg>
