<svg viewBox="0 0 140 140" xmlns="http://www.w3.org/2000/svg"><path d="m74.76 12.726 15.4 31.136a5.306 5.306 0 0 0 4.004 2.912L128.45 51.8a5.306 5.306 0 0 1 2.94 9.058l-24.85 24.22a5.334 5.334 0 0 0-1.526 4.704l5.866 34.23a5.306 5.306 0 0 1-7.714 5.6L72.478 113.4a5.348 5.348 0 0 0-4.956 0l-30.688 16.212a5.306 5.306 0 0 1-7.714-5.6L35 89.782a5.334 5.334 0 0 0-1.526-4.704L8.61 60.83a5.306 5.306 0 0 1 2.94-9.03l34.328-4.998a5.306 5.306 0 0 0 4.004-2.912L65.24 12.726a5.306 5.306 0 0 1 9.52 0z" fill="none" stroke="currentColor" stroke-linecap="round" stroke-linejoin="round" stroke-width="14"/></svg>