<svg viewBox="0 0 140 140" xmlns="http://www.w3.org/2000/svg"><path fill="currentColor" d="M129.5 80.5A10.5 10.5 0 0 0 119 91v24.5a3.5 3.5 0 0 1-3.5 3.5h-91a3.5 3.5 0 0 1-3.5-3.5v-91a3.5 3.5 0 0 1 3.5-3.5H49a10.5 10.5 0 0 0 0-21H24.5A24.528 24.528 0 0 0 0 24.5v91A24.528 24.528 0 0 0 24.5 140h91a24.528 24.528 0 0 0 24.5-24.5V91a10.5 10.5 0 0 0-10.5-10.5z"/><path fill="currentColor" d="M129.5 0H91a10.5 10.5 0 0 0 0 21h13.146L62.58 62.58a10.5 10.5 0 1 0 14.84 14.84L119 35.854V49a10.5 10.5 0 0 0 21 0V10.5A10.5 10.5 0 0 0 129.5 0z"/></svg>