<svg viewBox="0 0 36 36" xmlns="http://www.w3.org/2000/svg"><path fill-rule="evenodd" clip-rule="evenodd" d="M5.27208 5.27208C8.64773 1.89642 13.2261 0 18 0C22.7739 0 27.3523 1.89642 30.7279 5.27208C34.1036 8.64773 36 13.2261 36 18C36 22.7739 34.1036 27.3523 30.7279 30.7279C27.3523 34.1036 22.7739 36 18 36C13.2261 36 8.64773 34.1036 5.27208 30.7279C1.89642 27.3523 0 22.7739 0 18C0 13.2261 1.89642 8.64773 5.27208 5.27208ZM18 3.6C14.1809 3.6 10.5182 5.11714 7.81766 7.81766C5.11714 10.5182 3.6 14.1809 3.6 18C3.6 21.8191 5.11714 25.4818 7.81766 28.1823C10.5182 30.8829 14.1809 32.4 18 32.4C21.8191 32.4 25.4818 30.8829 28.1823 28.1823C30.8829 25.4818 32.4 21.8191 32.4 18C32.4 14.1809 30.8829 10.5182 28.1823 7.81766C25.4818 5.11714 21.8191 3.6 18 3.6Z" fill="currentColor"/><path fill-rule="evenodd" clip-rule="evenodd" d="M18 18C18.9941 18 19.8 18.8059 19.8 19.8V27C19.8 27.9941 18.9941 28.8 18 28.8C17.0058 28.8 16.2 27.9941 16.2 27V19.8C16.2 18.8059 17.0058 18 18 18Z" fill="currentColor"/><path d="M15.2795 10.7999C15.2795 11.5213 15.5661 12.2132 16.0763 12.7234C16.5864 13.2336 17.2784 13.5202 17.9998 13.5202C18.7213 13.5202 19.4132 13.2336 19.9234 12.7234C20.4335 12.2132 20.7201 11.5213 20.7201 10.7999C20.7201 10.0784 20.4335 9.38649 19.9234 8.87634C19.4132 8.36619 18.7213 8.07959 17.9998 8.07959C17.2784 8.07959 16.5864 8.36619 16.0763 8.87634C15.5661 9.38649 15.2795 10.0784 15.2795 10.7999Z" fill="currentColor"/></svg>
