<svg viewBox="0 0 36 36" xmlns="http://www.w3.org/2000/svg"><path fill-rule="evenodd" clip-rule="evenodd" d="M5.67198 5.27208C9.04764 1.89642 13.626 0 18.3999 0C23.1738 0 27.7522 1.89642 31.1278 5.27208C34.5035 8.64773 36.3999 13.2261 36.3999 18C36.3999 22.7739 34.5035 27.3523 31.1278 30.7279C27.7522 34.1036 23.1738 36 18.3999 36C13.626 36 9.04764 34.1036 5.67198 30.7279C2.29633 27.3523 0.399902 22.7739 0.399902 18C0.399902 13.2261 2.29633 8.64773 5.67198 5.27208ZM18.3999 3.6C14.5808 3.6 10.9181 5.11714 8.21757 7.81766C5.51704 10.5182 3.9999 14.1809 3.9999 18C3.9999 21.8191 5.51704 25.4818 8.21757 28.1823C10.9181 30.8829 14.5808 32.4 18.3999 32.4C22.219 32.4 25.8817 30.8829 28.5822 28.1823C31.2828 25.4818 32.7999 21.8191 32.7999 18C32.7999 14.1809 31.2828 10.5182 28.5822 7.81766C25.8817 5.11714 22.219 3.6 18.3999 3.6Z" fill="currentColor"/><path fill-rule="evenodd" clip-rule="evenodd" d="M27.0484 10.0907C27.8261 10.7099 27.9546 11.8423 27.3354 12.62L16.233 26.5642C15.8927 26.9915 15.3768 27.2412 14.8306 27.243C14.2843 27.2447 13.7669 26.9983 13.4239 26.5732L9.39039 21.5735C8.76619 20.7998 8.8874 19.6666 9.66112 19.0424C10.4348 18.4182 11.5681 18.5394 12.1923 19.3131L14.8156 22.5648L24.5191 10.3776C25.1383 9.59994 26.2707 9.47146 27.0484 10.0907Z" fill="currentColor"/></svg>
