<svg viewBox="0 0 36 36" xmlns="http://www.w3.org/2000/svg"><g fill="currentColor"><path d="m20 8c0-1.65685 1.3431-3 3-3s3 1.34315 3 3-1.3431 3-3 3-3-1.34315-3-3z"/><path d="m10 8c0-1.65685 1.3431-3 3-3s3 1.34315 3 3-1.3431 3-3 3-3-1.34315-3-3z"/><path d="m20 18c0-1.6569 1.3431-3 3-3s3 1.3431 3 3-1.3431 3-3 3-3-1.3431-3-3z"/><path d="m10 18c0-1.6569 1.3431-3 3-3s3 1.3431 3 3-1.3431 3-3 3-3-1.3431-3-3z"/><path d="m20 28c0-1.6569 1.3431-3 3-3s3 1.3431 3 3-1.3431 3-3 3-3-1.3431-3-3z"/><path d="m10 28c0-1.6569 1.3431-3 3-3s3 1.3431 3 3-1.3431 3-3 3-3-1.3431-3-3z"/></g></svg>