<svg viewBox="0 0 36 36" xmlns="http://www.w3.org/2000/svg"><circle fill="none" cx="27.7501" cy="13.875" r="6.07435" stroke="currentColor" stroke-width="3.6"/><g fill="currentColor"><circle cx="27.7502" cy="13.8749" r="2.24992"/><path clip-rule="evenodd" d="m4.42651 1.80061c0-.994114.80589-1.79999965 1.8-1.79999965.99412 0 1.8.80588765 1.8 1.79999965v4.40595c0 .99411-.80588 1.79999-1.8 1.79999-.99411 0-1.8-.80588-1.8-1.8zm5.81889 0c0-.994114.8058-1.79999965 1.8-1.79999965.9941 0 1.8.80588765 1.8 1.79999965v4.40595c0 .99411-.8059 1.79999-1.8 1.79999-.9942 0-1.8-.80588-1.8-1.8zm-3.04545 18.69939v4c0 6.2408 5.05915 11.3 11.30005 11.3 6.2408 0 11.2999-5.0592 11.2999-11.3 0-.2761-.2238-.5-.5-.5h-2.5999c-.2762 0-.5.2239-.5.5 0 4.2526-3.4475 7.7-7.7 7.7-4.2526 0-7.7-3.4474-7.7-7.7v-4z" fill-rule="evenodd"/><path clip-rule="evenodd" d="m6.46899 2.21179h-1.64043c-2.65096 0-4.7999955 2.14904-4.7999955 4.8v5.05761c0 4.9548 4.0166555 8.9715 8.9714555 8.9715 4.95478 0 8.97148-4.0167 8.97148-8.9715v-5.05761c0-2.65096-2.149-4.8-4.8-4.8h-1.1547v3.6h1.1547c.6627 0 1.2.53726 1.2 1.2v5.05761c0 2.9666-2.4049 5.3715-5.37148 5.3715-2.96657 0-5.37146-2.4049-5.37146-5.3715v-5.05761c0-.66274.53726-1.2 1.2-1.2h1.64043z" fill-rule="evenodd"/></g></svg>