<svg viewBox="0 0 36 36" xmlns="http://www.w3.org/2000/svg"><g clip-rule="evenodd" fill="currentColor" fill-rule="evenodd"><path d="m22.0331 2.2823.0071.01109c.0612.09636 2.2519 3.55093 4.4392 7.65382 1.0915 2.04739 2.2162 4.31929 3.0772 6.45159.8069 1.9984 1.5843 4.347 1.5843 6.3704 0 3.4852-1.3845 6.8276-3.8489 9.292s-5.8068 3.8489-9.292 3.8489-6.8276-1.3845-9.29199-3.8489c-2.4644-2.4644-3.84888-5.8068-3.84888-9.292 0-2.0256.77688-4.375 1.58423-6.3751.86111-2.1332 1.98591-4.4049 3.07755-6.45183 2.18759-4.10192 4.37859-7.55385 4.43899-7.64888l.007-.01109.0072-.01104c.4344-.67272 1.0305-1.22585 1.7338-1.608851.7033-.383004 1.4913-.5836736 2.2921-.5836736s1.5889.2006696 2.2922.5836736c.7032.383001 1.2993.936131 1.7338 1.608851zm-3.0313 1.94201c-.1081-.1674-.2564-.30503-.4314-.40034-.175-.0953-.3711-.14523-.5704-.14523-.1992 0-.3953.04993-.5703.14523-.175.09531-.3234.23294-.4315.40034-.0834.13125-8.53907 13.45259-8.53907 18.54489 0 2.5304 1.0052 4.9572 2.79447 6.7464 1.7893 1.7893 4.216 2.7945 6.7464 2.7945s4.9572-1.0052 6.7465-2.7945c1.7892-1.7892 2.7944-4.216 2.7944-6.7464 0-5.0805-8.4557-18.41364-8.5391-18.54489z"/><path d="m12.51 21.2c.9941 0 1.8.8058 1.8 1.8 0 2.0379 1.652 3.69 3.69 3.69.9941 0 1.8.8059 1.8 1.8s-.8059 1.8-1.8 1.8c-4.0262 0-7.29-3.2639-7.29-7.29 0-.9942.8058-1.8 1.8-1.8z"/></g></svg>