<svg viewBox="0 0 500 500" xmlns="http://www.w3.org/2000/svg"><path d="M 238.392 1.903 C 236.682 2.945, 231.288 8.456, 226.406 14.149 C 204.871 39.257, 184.755 55.202, 158.644 67.858 C 125.085 84.125, 90.724 90.821, 55.939 87.875 C 32.362 85.877, 25.755 86.643, 19.552 92.089 C 12.391 98.376, 12.495 97.287, 12.541 165.500 C 12.584 231.292, 13.056 239.231, 18.510 266 C 37.760 360.470, 100.616 439.804, 187.988 479.906 C 202.872 486.737, 232.678 497.820, 239.734 499.146 C 250.242 501.120, 261.065 499.711, 275.551 494.481 C 304.873 483.895, 325.061 474.540, 344.439 462.561 C 414.534 419.231, 464.255 348.462, 481.134 268 C 486.474 242.549, 487.114 233.105, 487.697 171.214 C 488.273 110.026, 488.011 104.862, 483.915 96.833 C 481.521 92.140, 476.780 88.525, 471.003 86.987 C 467.443 86.039, 464.212 86.072, 455.503 87.145 C 440.344 89.012, 411.129 88.744, 398.500 86.623 C 373.030 82.344, 346.947 72.695, 324.500 59.246 C 307.714 49.188, 287.637 31.463, 273.648 14.349 C 269.983 9.867, 264.812 4.804, 262.155 3.099 C 257.793 0.300, 256.558 0, 249.412 0.004 C 243.410 0.007, 240.750 0.465, 238.392 1.903 M 243 70.130 C 204.605 105.779, 157.207 128.722, 106 136.446 C 100.225 137.318, 88.188 138.319, 79.250 138.672 L 63 139.313 63 181.444 C 63 232.182, 64.327 246.107, 71.679 272.500 C 78.226 296.002, 90.923 324.320, 103.471 343.402 C 131.832 386.533, 172.854 419.995, 221 439.269 C 228.425 442.242, 237.988 445.933, 242.250 447.471 L 250 450.268 257.750 447.471 C 287.696 436.663, 305.950 427.840, 326 414.480 C 347.805 399.951, 366.031 383.140, 383.005 361.902 C 406.855 332.060, 424.869 293.277, 432.432 255.484 C 436.282 236.247, 437 224.582, 437 181.288 L 437 139 425.244 139 C 366.592 139, 302.008 113.012, 258.639 71.960 C 254.014 67.582, 250.066 64.021, 249.865 64.047 C 249.664 64.073, 246.575 66.810, 243 70.130" stroke="none" fill="currentColor" fill-rule="evenodd"></path></svg>