<svg viewBox="0 0 36 36" xmlns="http://www.w3.org/2000/svg"><g fill="currentColor"><circle r="1.8" transform="matrix(-.707107 -.707107 -.707107 .707107 26.4622 22.6104)"/><circle r="1.8" transform="matrix(-.707107 -.707107 -.707107 .707107 11.8846 8.03284)"/><circle r="1.8" transform="matrix(-.707107 -.707107 -.707107 .707107 24.4427 28.1796)"/><circle r="1.8" transform="matrix(-.707107 -.707107 -.707107 .707107 9.86506 13.6019)"/><path clip-rule="evenodd" d="m21.8778 12.4576 1.9398 1.9398-9.4202 9.4203-1.9399-1.9398zm-2.5456-2.54558-9.42026 9.42028-4.07084-4.0708c-2.60135-2.6014-2.60135-6.81898-.00001-9.42033 2.60135-2.60135 6.81891-2.60135 9.42031-.00001zm10.8268 10.82668-3.7958-3.7957-9.4203 9.4203 3.7958 3.7957c2.6013 2.6014 6.8189 2.6014 9.4203 0 2.6013-2.6013 2.6013-6.8189 0-9.4203zm2.5455-2.5456c4.0073 4.0073 4.0073 10.5043 0 14.5115-4.0072 4.0072-10.5042 4.0073-14.5114 0l-14.89759-14.8975c-4.007226-4.0073-4.00723-10.50428 0-14.51151 4.00723-4.007232 10.50419-4.007242 14.51149-.00001z" fill-rule="evenodd"/></g></svg>