<svg viewBox="0 0 36 36" xmlns="http://www.w3.org/2000/svg"><clipPath id="a"><path d="m0 0h36v36h-36z"/></clipPath><g clip-path="url(#a)"><g clip-rule="evenodd" fill="currentColor" fill-rule="evenodd"><path d="m20.8094 9.96151c-.7029-.70294-.7029-1.84264 0-2.54558 2.2651-2.26504 5.9374-2.26504 8.2025 0 .7029.70294.7029 1.84264 0 2.54558-.703.70299-1.8427.70299-2.5456 0-.8592-.85915-2.2521-.85915-3.1113 0-.7029.70299-1.8426.70299-2.5456 0z"/><path d="m14.0403 11.4946 5.7982-5.79824c2.8899-2.88988 7.5753-2.88988 10.4652 0s2.8899 7.57534 0 10.46514l-5.7983 5.7983zm-2.5456 2.5456-5.79833 5.7983c-2.88989 2.8899-2.88989 7.5753-.00001 10.4652s7.57534 2.8899 10.46514 0l5.7983-5.7983zm-8.34392 18.8091c-4.29577-4.2958-4.29577-11.2606 0-15.5564l14.14212-14.14212c4.2958-4.29577 11.2606-4.29577 15.5564 0 4.2957 4.29577 4.2957 11.26062 0 15.55632l-14.1422 14.1422c-4.2957 4.2957-11.26055 4.2957-15.55632 0z"/></g></g></svg>