<svg viewBox="0 0 140 140" xmlns="http://www.w3.org/2000/svg"><g transform="matrix(14,0,0,14,0,0)"><path d="M3.500 6.000 A3 1.5 0 1 0 9.500 6.000 A3 1.5 0 1 0 3.500 6.000 Z" fill="none" stroke="currentColor" stroke-linecap="round" stroke-linejoin="round"></path><path d="M3.5,6V8c0,.828,1.343,1.5,3,1.5s3-.672,3-1.5V6" fill="none" stroke="currentColor" stroke-linecap="round" stroke-linejoin="round"></path><path d="M0.500 2.000 A3 1.5 0 1 0 6.500 2.000 A3 1.5 0 1 0 0.500 2.000 Z" fill="none" stroke="currentColor" stroke-linecap="round" stroke-linejoin="round"></path><path d="M.5,2V7c0,.444.386.843,1,1.118" fill="none" stroke="currentColor" stroke-linecap="round" stroke-linejoin="round"></path><path d="M.5,4.5c0,.444.386.843,1,1.118" fill="none" stroke="currentColor" stroke-linecap="round" stroke-linejoin="round"></path></g></svg>