<svg viewBox="0 0 140 140" xmlns="http://www.w3.org/2000/svg"><g fill="none" stroke="currentColor" stroke-linecap="round" stroke-linejoin="round" stroke-width="14"><path d="M41.5 80.5 61.857 98 94.43 56"/><path d="M110.714 28H94.429c0-5.57-2.574-10.911-7.155-14.85C82.692 9.213 76.479 7 70 7s-12.692 2.212-17.274 6.15c-4.58 3.939-7.155 9.28-7.155 14.85H29.286c-4.32 0-8.462 1.475-11.516 4.1C14.716 34.726 13 38.287 13 42v77c0 3.713 1.716 7.274 4.77 9.899 3.054 2.626 7.196 4.101 11.516 4.101h81.428c4.32 0 8.462-1.475 11.516-4.101 3.054-2.625 4.77-6.186 4.77-9.899V42c0-3.713-1.716-7.274-4.77-9.9s-7.196-4.1-11.516-4.1z"/></g></svg>